<?xml version="1.0" standalone="no"?>
<!DOCTYPE svg PUBLIC "-//W3C//DTD SVG 20010904//EN"
 "http://www.w3.org/TR/2001/REC-SVG-20010904/DTD/svg10.dtd">
<svg version="1.0" xmlns="http://www.w3.org/2000/svg"
 width="510.000000pt" height="510.000000pt" viewBox="0 0 510.000000 510.000000"
 preserveAspectRatio="xMidYMid meet">
<metadata>
Created by potrace 1.11, written by Peter Selinger 2001-2013
</metadata>
<g transform="translate(0.000000,510.000000) scale(0.100000,-0.100000)"
fill="#000000" stroke="none">
<path d="M2395 4849 c-925 -59 -1734 -685 -2025 -1566 -246 -748 -103 -1550
387 -2170 85 -108 298 -314 413 -400 568 -424 1292 -563 1978 -382 640 169
1180 614 1473 1214 111 228 181 461 215 715 16 125 18 422 3 558 -35 319 -156
670 -324 942 -133 214 -336 445 -520 590 -311 246 -674 408 -1062 475 -80 13
-361 37 -403 33 -8 0 -69 -4 -135 -9z m290 -419 c254 -21 479 -82 694 -188
560 -276 945 -805 1035 -1423 20 -135 20 -391 1 -528 -100 -703 -597 -1297
-1270 -1520 -483 -160 -980 -123 -1434 106 -369 185 -649 465 -834 834 -301
596 -269 1274 86 1844 143 229 367 452 607 602 244 152 543 249 840 273 142
11 137 11 275 0z"/>
<path d="M2347 4251 c-378 -269 -460 -339 -508 -432 -30 -59 -38 -178 -15
-232 12 -29 508 -729 546 -770 4 -5 22 1 41 12 18 11 53 23 76 27 l43 6 0 154
c0 130 2 154 15 154 13 0 15 -24 15 -155 l0 -155 25 0 c13 0 49 -9 80 -21 31
-12 57 -19 59 -17 18 26 206 282 333 455 196 266 217 306 217 418 -1 98 -26
163 -87 223 -41 40 -625 472 -639 472 -3 0 -94 -63 -201 -139z"/>
<path d="M1520 3606 c-95 -27 -158 -68 -507 -327 l-212 -158 18 -58 c63 -203
217 -664 232 -695 32 -62 81 -110 144 -140 49 -23 73 -28 134 -28 67 0 105 10
380 100 168 54 358 115 421 135 l115 35 0 83 0 82 -139 45 c-77 25 -141 51
-144 58 -6 19 21 15 165 -29 109 -33 137 -38 144 -27 5 7 9 16 9 21 0 4 18 27
40 51 l40 43 -240 329 c-306 420 -317 434 -369 463 -53 29 -162 37 -231 17z"/>
<path d="M3418 3597 c-58 -22 -120 -62 -159 -104 -30 -31 -346 -467 -468 -646
-36 -53 -36 -51 13 -119 19 -26 36 -53 38 -59 2 -7 53 5 148 35 93 30 148 42
154 36 11 -11 -18 -25 -171 -77 l-112 -38 1 -60 c0 -33 -2 -70 -6 -82 -7 -20
1 -24 121 -62 70 -22 261 -81 423 -131 288 -90 297 -92 375 -88 92 5 142 27
212 91 63 58 87 104 149 289 68 203 164 511 164 526 0 12 -31 35 -365 277
-281 204 -307 218 -404 222 -48 2 -90 -2 -113 -10z"/>
<path d="M2490 2819 c-95 -19 -184 -104 -211 -202 -24 -90 7 -202 75 -270 55
-56 100 -72 196 -72 96 0 141 16 196 72 59 59 79 108 79 198 0 67 -5 88 -27
131 -58 110 -182 168 -308 143z"/>
<path d="M1835 2310 c-483 -159 -443 -144 -493 -181 -65 -47 -105 -138 -110
-249 -5 -104 -6 -100 130 -513 l102 -309 406 4 405 3 56 26 c90 43 163 132
183 225 4 17 8 231 9 477 l3 445 -36 6 c-19 3 -53 15 -75 26 l-40 21 -17 -23
c-10 -13 -51 -69 -93 -126 -41 -57 -80 -100 -85 -97 -12 8 -15 2 83 146 l79
116 -44 66 c-23 36 -50 66 -58 65 -8 0 -190 -57 -405 -128z"/>
<path d="M2835 2420 c-3 -11 -24 -42 -45 -69 l-39 -49 85 -115 c46 -63 84
-120 84 -126 0 -27 -24 -4 -101 97 -45 59 -85 111 -90 116 -4 4 -32 -1 -63
-13 -31 -12 -68 -21 -81 -21 l-25 0 -2 -367 c-4 -576 -6 -542 26 -606 48 -100
158 -175 287 -197 40 -7 192 -10 413 -8 l349 3 14 40 c8 22 62 186 120 365 94
290 106 333 107 400 1 63 -4 84 -27 131 -30 62 -103 136 -163 167 -29 15 -632
210 -826 268 -10 3 -19 -2 -23 -16z"/>
</g>
</svg>
